#!OML:ASF F:\VICON\USERDATA\INSTALL\rory3\rory3.ASF
:FULLY-SPECIFIED
:DEGREES
631
root -1.28341 16.7226 26.8304 214.825 147.06 -171.213
lowerback -21.9566 -3.40343 6.54878
upperback -12.0751 -5.40767 3.90529
thorax -1.23305 -2.80911 -0.582695
lowerneck 7.55412 -20.4529 -14.9622
upperneck 8.86063 -28.7429 7.31678
head 4.66418 -14.561 3.01569
rclavicle -1.34677e-014 -1.27222e-014
rhumerus -48.9894 0.909941 -59.0495
rradius 13.1474
rwrist -8.23102
rhand 24.0867 8.73665
rfingers 7.12502
rthumb 48.3214 -13.3248
lclavicle -1.34677e-014 -1.27222e-014
lhumerus -239.21 -193.449 229.718
lradius 20.921
lwrist -6.66726
lhand 24.8138 26.1534
lfingers 7.12502
lthumb 48.9902 47.8906
rfemur 120.73 -191.427 -166.408
rtibia 44.0192
rfoot -60.7018 -37.5447
rtoes 43.0569
lfemur -17.2107 2.13684 -27.4112
ltibia 36.7411
lfoot 11.6409 37.959
ltoes 11.4294
632
root -1.27866 16.7195 26.8294 214.808 147.187 -171.119
lowerback -21.6248 -3.41841 6.49188
upperback -12.2345 -5.37666 3.84255
thorax -1.5723 -2.80533 -0.580014
lowerneck 7.5785 -20.516 -15.1508
upperneck 9.12548 -28.875 7.44749
head 4.80359 -14.6284 3.03312
rclavicle -8.94531e-016 2.06736e-014
rhumerus -49.2274 1.0053 -59.2301
rradius 13.1521
rwrist -8.3417
rhand 23.9038 8.76281
rfingers 7.12502
rthumb 48.1528 -13.3784
lclavicle -8.94531e-016 2.06736e-014
lhumerus -239.339 -193.171 229.91
lradius 21.0955
lwrist -6.35596
lhand 24.7556 26.0363
lfingers 7.12502
lthumb 48.9367 47.8
rfemur 120.824 -191.293 -166.378
rtibia 44.0525
rfoot -60.2347 -37.6149
rtoes 43.1135
lfemur -17.1023 2.2071 -27.5702
ltibia 36.7087
lfoot 10.8539 38.2133
ltoes 13.1938
633
root -1.2709 16.7187 26.8233 214.664 147.253 -171.171
lowerback -21.3469 -3.4219 6.61487
upperback -12.301 -5.37617 3.83965
thorax -1.79804 -2.81977 -0.626879
lowerneck 7.49952 -20.5761 -15.3117
upperneck 9.31955 -28.9731 7.47156
head 4.91314 -14.6778 3.0179
rclavicle -9.41245e-014 4.77083e-015
rhumerus -49.3522 1.49607 -59.7618
rradius 13.2617
rwrist -9.11466
rhand 23.7094 8.83961
rfingers 7.12502
rthumb 47.9737 -13.3855
lclavicle -9.41245e-014 4.77083e-015
lhumerus -239.431 -192.844 230.335
lradius 21.3777
lwrist -5.95256
lhand 24.6762 26.3739
lfingers 7.12502
lthumb 48.8637 48.1735
rfemur 120.955 -191.174 -166.218
rtibia 44.0773
rfoot -59.7785 -37.8799
rtoes 43.0821
lfemur -16.9477 2.26114 -27.599
ltibia 36.6702
lfoot 10.044 38.536
ltoes 14.7936
634
root -1.25915 16.7174 26.8153 214.439 147.158 -171.39
lowerback -21.2887 -3.40092 6.92883
upperback -12.1388 -5.41536 3.892
thorax -1.67913 -2.84955 -0.755623
lowerneck 6.96106 -20.7286 -15.1764
upperneck 9.52717 -29.098 7.28007
head 5.02539 -14.7234 2.86937
rclavicle 5.69021e-014 -2.8625e-014
rhumerus -49.1291 1.8104 -60.2562
rradius 13.5038
rwrist -9.88115
rhand 23.6937 8.74303
rfingers 7.12502
rthumb 47.9592 -13.4888
lclavicle 5.69021e-014 -2.8625e-014
lhumerus -239.18 -192.835 230.718
lradius 21.5519
lwrist -5.72395
lhand 24.5124 26.845
lfingers 7.12502
lthumb 48.7131 48.7181
rfemur 121.119 -190.992 -165.876
rtibia 44.0677
rfoot -59.4976 -37.8831
rtoes 43.4088
lfemur -16.7977 2.24352 -27.4152
ltibia 36.6656
lfoot 9.17056 38.701
ltoes 16.2907
635
root -1.24701 16.7152 26.8096 214.303 147.096 -171.544
lowerback -21.4436 -3.43279 7.1167
upperback -11.8663 -5.53242 4.00795
thorax -1.31605 -2.90034 -0.784037
lowerneck 6.43277 -20.8189 -15.0499
upperneck 9.50664 -29.1468 7.29356
head 5.0875 -14.7269 2.79708
rclavicle 2.38045e-014 2.38542e-014
rhumerus -48.5548 1.65249 -60.2387
rradius 13.5874
rwrist -9.95798
rhand 23.7613 8.72403
rfingers 7.12502
rthumb 48.0216 -13.4787
lclavicle 2.38045e-014 2.38542e-014
lhumerus -238.946 -193.275 230.809
lradius 21.63
lwrist -5.88738
lhand 24.558 26.5405
lfingers 7.12502
lthumb 48.755 48.3932
rfemur 121.262 -190.805 -165.598
rtibia 44.0066
rfoot -59.1426 -37.9663
rtoes 43.731
lfemur -16.7218 2.14139 -27.2988
ltibia 36.7237
lfoot 8.41797 38.6568
ltoes 17.3986
636
root -1.23326 16.7131 26.8024 214.215 146.998 -171.617
lowerback -21.584 -3.46494 7.33042
upperback -11.6893 -5.64327 4.01595
thorax -1.08139 -2.95701 -0.933023
lowerneck 6.71002 -20.8194 -14.8909
upperneck 8.96228 -29.173 7.65505
head 4.9089 -14.7351 2.93767
rclavicle 7.65818e-014 2.8625e-014
rhumerus -48.2188 1.4564 -60.2896
rradius 13.6752
rwrist -10.0126
rhand 23.823 8.87899
rfingers 7.12502
rthumb 48.0784 -13.2972
lclavicle 7.65818e-014 2.8625e-014
lhumerus -238.691 -193.331 231.02
lradius 21.5505
lwrist -5.75085
lhand 24.5742 26.253
lfingers 7.12502
lthumb 48.77 48.0984
rfemur 121.402 -190.536 -165.364
rtibia 43.9302
rfoot -58.7237 -38.299
rtoes 43.6081
lfemur -16.6867 1.95754 -27.2573
ltibia 36.8167
lfoot 9.27225 38.4143
ltoes 15.486
